Coordinates
version=1
nRows=8
nColumns=40
inDegrees=yes

Units are S.I. units (second, meters, Newtons, ...)
Angles are in degrees.

endheader
time	pelvis_tilt	pelvis_list	pelvis_rotation	pelvis_tx	pelvis_ty	pelvis_tz	hip_flexion_r	hip_adduction_r	hip_rotation_r	knee_angle_r	knee_angle_r_beta	ankle_angle_r	subtalar_angle_r	mtp_angle_r	hip_flexion_l	hip_adduction_l	hip_rotation_l	knee_angle_l	knee_angle_l_beta	ankle_angle_l	subtalar_angle_l	mtp_angle_l	lumbar_extension	lumbar_bending	lumbar_rotation	arm_flex_r	arm_add_r	arm_rot_r	elbow_flex_r	pro_sup_r	wrist_flex_r	wrist_dev_r	arm_flex_l	arm_add_l	arm_rot_l	elbow_flex_l	pro_sup_l	wrist_flex_l	wrist_dev_l
     43.77500000	     -3.96961495	     -3.04536890	     -4.92359171	      1.05479556	      0.92988726	      0.41769286	     24.31135885	     -3.36888584	    -11.31224036	     12.72781414	     12.72781414	      2.24235995	      5.81426981	      8.09046151	      5.24127034	     -4.31927012	    -12.89952185	     16.47394167	     16.47394167	     15.62303421	     -8.77714186	     -2.68509574	     -9.98524860	      4.60411761	      0.91794134	    -12.51832965	    -11.33364575	     -3.11691493	     28.91886233	     46.11206085	      0.00000000	      0.00000000	     29.16005574	    -22.94597510	    -10.13862942	     68.11727621	     47.40627675	      0.00000000	      0.00000000
     43.78835714	     -3.87044718	     -2.87829967	     -4.76669349	      1.05598771	      0.92903169	      0.41956102	     23.64037866	     -3.42537696	    -11.46211922	     12.96984294	     12.96984294	      1.12421311	      5.54153736	      4.05439781	      4.69692618	     -4.30027697	    -13.17770008	     16.54112951	     16.54112951	     16.24903816	     -7.96115140	     -2.56678150	     -9.75677097	      4.45335823	      0.93173327	    -12.76290512	    -11.32880975	     -3.00543374	     29.48039450	     46.07803261	      0.00000000	      0.00000000	     29.18790835	    -22.53529716	    -10.30487354	     67.97865687	     47.43979810	      0.00000000	      0.00000000
     43.80171429	     -3.72987916	     -2.72998343	     -4.59129511	      1.05724807	      0.92838362	      0.42151843	     23.11868099	     -3.51040366	    -11.36012776	     13.81939613	     13.81939613	      1.32668110	      5.07600140	      3.44472552	      4.00381219	     -4.21498886	    -13.10448820	     16.36125938	     16.36125938	     16.54015428	     -7.75604379	     -2.57612941	     -9.57742030	      4.32067756	      0.86569471	    -12.59239423	    -11.32719512	     -2.96328609	     29.57070523	     46.07281514	      0.00000000	      0.00000000	     28.99664709	    -22.31503712	    -10.26037608	     67.90652550	     47.43674618	      0.00000000	      0.00000000
     43.81507143	     -3.56333695	     -2.60408229	     -4.37742218	      1.05871598	      0.92770676	      0.42365205	     22.45686794	     -3.51480574	    -10.97295419	     14.42687219	     14.42687219	      0.59301223	      4.01916060	      0.03707129	      3.33895248	     -4.23168347	    -13.21486803	     16.35290210	     16.35290210	     17.13697029	     -7.09155842	     -2.25041415	     -9.38939731	      4.19867318	      0.70654334	    -12.37906120	    -11.41444989	     -2.51384641	     29.96285046	     46.02751525	      0.00000000	      0.00000000	     28.59557824	    -21.92253601	    -10.68018292	     67.82298594	     47.47901257	      0.00000000	      0.00000000
     43.82842857	     -3.36186888	     -2.52061620	     -4.15607746	      1.06022678	      0.92719689	      0.42583637	     21.95826669	     -3.56649846	    -10.78844824	     15.46570108	     15.46570108	      1.07046157	      3.51454005	     -0.50011927	      2.57938481	     -4.25112132	    -13.13328247	     16.20379492	     16.20379492	     17.42925458	     -6.82094581	     -2.25592028	     -9.25600132	      4.13658606	      0.66255957	    -11.99743198	    -11.48865738	     -2.47341962	     30.14532891	     46.02059792	      0.00000000	      0.00000000	     28.14957912	    -21.60023510	    -10.62812810	     67.62981721	     47.47038827	      0.00000000	      0.00000000
     43.84178571	     -3.15852497	     -2.46006937	     -3.94084863	      1.06178151	      0.92676889	      0.42823813	     21.53159097	     -3.56101928	    -10.44310552	     16.51551341	     16.51551341	      1.59961163	      2.77770312	     -1.11426931	      1.82538596	     -4.33209779	    -13.11290727	     16.08728610	     16.08728610	     17.73787799	     -6.44710141	     -2.21259751	     -9.12684590	      4.07908165	      0.60382506	    -11.50316332	    -11.59956605	     -2.43662866	     30.42311684	     46.01080804	      0.00000000	      0.00000000	     27.56089705	    -21.25485919	    -10.69160187	     67.35282550	     47.46730569	      0.00000000	      0.00000000
     43.85514286	     -2.97554207	     -2.41149768	     -3.73673822	      1.06330803	      0.92643114	      0.43082694	     21.18550424	     -3.48907816	     -9.91062307	     17.50980660	     17.50980660	      2.11624427	      1.71586604	     -1.78242083	      1.12909345	     -4.47732883	    -13.20813049	     16.04783859	     16.04783859	     18.09204002	     -5.87911548	     -2.04448886	     -8.98026764	      4.02754983	      0.48741566	    -10.85949216	    -11.72393579	     -2.36808918	     30.85964558	     45.99334239	      0.00000000	      0.00000000	     26.77055121	    -20.87333903	    -10.98514972	     66.98641095	     47.47794280	      0.00000000	      0.00000000
     43.86850000	     -2.77879164	     -2.55101360	     -3.52538261	      1.06482747	      0.92633918	      0.43359804	     20.71857441	     -3.24804375	     -9.78746458	     18.21554339	     18.21554339	      2.70685279	      1.27103806	     -2.14734479	      0.48093404	     -4.83181689	    -13.08910003	     16.12318078	     16.12318078	     18.29148243	     -5.74534252	     -2.00875107	     -8.88689381	      4.16654120	      0.61148043	    -10.19785103	    -11.89610634	     -2.38049579	     31.14679421	     45.98791473	      0.00000000	      0.00000000	     25.90633891	    -20.25270652	    -10.90313389	     66.65541281	     47.45999869	      0.00000000	      0.00000000
